<svg width="700" height="570" viewBox="0 0 700 570" fill="none" xmlns="http://www.w3.org/2000/svg">
<path d="M113.553 102.566C131.053 41.3145 180.185 0 235.526 0H700L686.449 47.4342C668.946 108.686 619.814 150 564.473 150H100L113.553 102.566Z" fill="#297DFE"/>
<path d="M13.5526 522.565C31.053 461.315 80.1853 420 135.526 420H600L586.449 467.435C568.946 528.685 519.814 570 464.473 570H0L13.5526 522.565Z" fill="#9867FF"/>
<path d="M56.286 338.571C70.118 269.41 127.163 220 193.178 220H470L463.714 251.43C449.882 320.59 392.837 370 326.822 370H50L56.286 338.571Z" fill="#F4E830"/>
</svg>
