<svg width="156" height="30" viewBox="0 0 156 30" fill="none" xmlns="http://www.w3.org/2000/svg">
<path d="M119.556 18.4862C119.556 18.8595 119.622 19.2104 119.755 19.539C119.887 19.8526 120.064 20.1288 120.285 20.3677C120.521 20.6067 120.794 20.7933 121.104 20.9277C121.428 21.0621 121.774 21.1293 122.143 21.1293C122.497 21.1293 122.828 21.0621 123.138 20.9277C123.462 20.7933 123.735 20.6067 123.956 20.3677C124.192 20.1288 124.376 19.8526 124.509 19.539C124.657 19.2254 124.73 18.8894 124.73 18.531C124.73 18.1726 124.657 17.8366 124.509 17.523C124.376 17.1945 124.192 16.9108 123.956 16.6719C123.735 16.4329 123.462 16.2463 123.138 16.1119C122.828 15.9775 122.497 15.9103 122.143 15.9103C121.774 15.9103 121.428 15.9775 121.104 16.1119C120.794 16.2463 120.521 16.4329 120.285 16.6719C120.064 16.9108 119.887 17.187 119.755 17.5006C119.622 17.7993 119.556 18.1278 119.556 18.4862ZM124.598 12.7744H128.622V24.2652H124.598V22.9884C123.743 24.0785 122.585 24.6236 121.126 24.6236C120.3 24.6236 119.541 24.4743 118.848 24.1756C118.155 23.862 117.551 23.429 117.035 22.8764C116.519 22.3239 116.113 21.6744 115.819 20.9277C115.538 20.1811 115.398 19.3672 115.398 18.4862C115.398 17.6649 115.538 16.8884 115.819 16.1567C116.099 15.41 116.489 14.7605 116.991 14.208C117.492 13.6554 118.089 13.2224 118.782 12.9088C119.475 12.5803 120.241 12.416 121.082 12.416C122.497 12.416 123.669 12.9163 124.598 13.9168V12.7744ZM136.078 20.8829H140.855V24.2652H129.356L134.707 16.1567H130.086V12.7744H141.385L136.078 20.8829ZM146.269 22.6973L140.785 12.7744H145.429L148.459 18.6654L151.4 12.7744H155.999L146.889 29.9994H142.4L146.269 22.6973Z" fill="#2D3436"/>
<path d="M96.4769 4.06142C97.1549 1.65741 99.3242 0 101.792 0H118.156L117.722 1.53838C117.044 3.94239 114.875 5.5998 112.407 5.5998H96.043L96.4769 4.06142Z" fill="#297DFE"/>
<path d="M94.4474 13.7585C94.9936 11.1766 97.2462 9.33203 99.853 9.33203H110.784L110.536 10.5054C109.99 13.0873 107.737 14.9318 105.13 14.9318H94.1992L94.4474 13.7585Z" fill="#F4E830"/>
<path d="M92.7914 22.7274C93.4693 20.3234 95.6387 18.666 98.1069 18.666H114.471L114.037 20.2045C113.359 22.6085 111.189 24.2658 108.721 24.2658H92.3574L92.7914 22.7274Z" fill="#9867FF"/>
<path d="M4.15729 18.4874C4.15729 18.8608 4.22363 19.2117 4.35631 19.5402C4.48899 19.8538 4.66589 20.1301 4.88703 20.369C5.1229 20.6079 5.39563 20.7946 5.70522 20.929C6.02954 21.0634 6.37598 21.1306 6.74454 21.1306C7.09835 21.1306 7.43005 21.0634 7.73963 20.929C8.06396 20.7946 8.33669 20.6079 8.55783 20.369C8.7937 20.1301 8.97798 19.8538 9.11066 19.5402C9.25808 19.2266 9.33179 18.8906 9.33179 18.5322C9.33179 18.1739 9.25808 17.8379 9.11066 17.5243C8.97798 17.1958 8.7937 16.912 8.55783 16.6731C8.33669 16.4342 8.06396 16.2475 7.73963 16.1131C7.43005 15.9787 7.09835 15.9115 6.74454 15.9115C6.37598 15.9115 6.02954 15.9787 5.70522 16.1131C5.39563 16.2475 5.1229 16.4342 4.88703 16.6731C4.66589 16.912 4.48899 17.1883 4.35631 17.5019C4.22363 17.8005 4.15729 18.1291 4.15729 18.4874ZM9.19911 12.7757H13.2236V24.2664H9.19911V22.9897C8.34406 24.0798 7.1868 24.6248 5.72733 24.6248C4.90177 24.6248 4.14255 24.4755 3.44967 24.1768C2.75678 23.8633 2.15236 23.4302 1.63638 22.8777C1.1204 22.3252 0.714995 21.6756 0.420151 20.929C0.14005 20.1823 0 19.3685 0 18.4874C0 17.6661 0.14005 16.8896 0.420151 16.1579C0.700252 15.4113 1.09092 14.7617 1.59215 14.2092C2.09339 13.6567 2.69044 13.2236 3.38333 12.91C4.07621 12.5815 4.8428 12.4173 5.6831 12.4173C7.09835 12.4173 8.27035 12.9175 9.19911 13.918V12.7757ZM18.8443 12.7757V19.249C18.8443 20.6676 19.5224 21.3769 20.8787 21.3769C22.235 21.3769 22.9131 20.6676 22.9131 19.249V12.7757H26.9156V20.033C26.9156 21.586 26.407 22.7508 25.3898 23.5273C24.3873 24.3038 22.8836 24.692 20.8787 24.692C18.8738 24.692 17.3627 24.3038 16.3455 23.5273C15.343 22.7508 14.8418 21.586 14.8418 20.033V12.7757H18.8443ZM32.9955 16.1579V24.2664H28.9931V16.1579H27.6664V12.7757H28.9931V9.32617H32.9955V12.7757H35.2733V16.1579H32.9955ZM39.648 18.465C39.648 18.8533 39.7144 19.2117 39.8471 19.5402C39.9945 19.8538 40.1788 20.1301 40.3999 20.369C40.6358 20.6079 40.9085 20.7946 41.2181 20.929C41.5424 21.0634 41.8815 21.1306 42.2353 21.1306C42.5891 21.1306 42.9208 21.0634 43.2304 20.929C43.5547 20.7946 43.8274 20.6079 44.0486 20.369C44.2845 20.1301 44.4687 19.8538 44.6014 19.5402C44.7488 19.2117 44.8225 18.8608 44.8225 18.4874C44.8225 18.1291 44.7488 17.7931 44.6014 17.4795C44.4687 17.151 44.2845 16.8672 44.0486 16.6283C43.8274 16.3894 43.5547 16.2027 43.2304 16.0683C42.9208 15.9339 42.5891 15.8667 42.2353 15.8667C41.8815 15.8667 41.5424 15.9339 41.2181 16.0683C40.9085 16.2027 40.6358 16.3894 40.3999 16.6283C40.1788 16.8672 39.9945 17.1435 39.8471 17.4571C39.7144 17.7707 39.648 18.1067 39.648 18.465ZM35.4244 18.4202C35.4244 17.5691 35.594 16.7776 35.933 16.0459C36.2721 15.2993 36.7438 14.6572 37.3483 14.1196C37.9527 13.5671 38.6677 13.134 39.4933 12.8204C40.3336 12.5069 41.2476 12.3501 42.2353 12.3501C43.2083 12.3501 44.1076 12.5069 44.9331 12.8204C45.7734 13.1191 46.4958 13.5447 47.1002 14.0972C47.7194 14.6348 48.1985 15.2844 48.5376 16.0459C48.8766 16.7926 49.0462 17.6213 49.0462 18.5322C49.0462 19.4431 48.8693 20.2794 48.5155 21.041C48.1764 21.7876 47.7046 22.4372 47.1002 22.9897C46.4958 23.5273 45.766 23.9454 44.911 24.244C44.0707 24.5427 43.1567 24.692 42.169 24.692C41.196 24.692 40.2967 24.5427 39.4711 24.244C38.6456 23.9454 37.9306 23.5198 37.3262 22.9673C36.7365 22.4148 36.2721 21.7577 35.933 20.9962C35.594 20.2197 35.4244 19.361 35.4244 18.4202ZM50.2445 12.7757H54.247V14.1868C55.3379 13.1266 56.5615 12.5965 57.9178 12.5965C59.5984 12.5965 60.881 13.3132 61.7655 14.7468C62.6648 13.2983 63.9474 12.5741 65.6132 12.5741C66.144 12.5741 66.6452 12.6562 67.1169 12.8204C67.5887 12.9698 67.9941 13.2162 68.3332 13.5596C68.6722 13.8881 68.9376 14.3212 69.1292 14.8588C69.3356 15.3964 69.4388 16.0459 69.4388 16.8075V24.2664H65.4363V18.5994C65.4363 18.0171 65.3921 17.5392 65.3036 17.1659C65.2299 16.7926 65.112 16.5014 64.9498 16.2923C64.8024 16.0833 64.6255 15.9414 64.4191 15.8667C64.2127 15.7921 63.9916 15.7547 63.7557 15.7547C62.4732 15.7547 61.8319 16.703 61.8319 18.5994V24.2664H57.8294V18.5994C57.8294 18.0171 57.7925 17.5392 57.7188 17.1659C57.6451 16.7776 57.5345 16.4715 57.3871 16.2475C57.2544 16.0235 57.0775 15.8742 56.8564 15.7995C56.6353 15.7099 56.3773 15.6651 56.0824 15.6651C55.8318 15.6651 55.5959 15.7025 55.3748 15.7771C55.1537 15.8518 54.9547 16.0011 54.7777 16.2251C54.6156 16.4342 54.4829 16.7328 54.3797 17.1211C54.2913 17.4944 54.247 17.9872 54.247 18.5994V24.2664H50.2445V12.7757ZM74.7945 18.4874C74.7945 18.8608 74.8608 19.2117 74.9935 19.5402C75.1262 19.8538 75.3031 20.1301 75.5242 20.369C75.7601 20.6079 76.0328 20.7946 76.3424 20.929C76.6667 21.0634 77.0132 21.1306 77.3817 21.1306C77.7355 21.1306 78.0672 21.0634 78.3768 20.929C78.7011 20.7946 78.9739 20.6079 79.195 20.369C79.4309 20.1301 79.6152 19.8538 79.7478 19.5402C79.8953 19.2266 79.969 18.8906 79.969 18.5322C79.969 18.1739 79.8953 17.8379 79.7478 17.5243C79.6152 17.1958 79.4309 16.912 79.195 16.6731C78.9739 16.4342 78.7011 16.2475 78.3768 16.1131C78.0672 15.9787 77.7355 15.9115 77.3817 15.9115C77.0132 15.9115 76.6667 15.9787 76.3424 16.1131C76.0328 16.2475 75.7601 16.4342 75.5242 16.6731C75.3031 16.912 75.1262 17.1883 74.9935 17.5019C74.8608 17.8005 74.7945 18.1291 74.7945 18.4874ZM79.8363 12.7757H83.8609V24.2664H79.8363V22.9897C78.9812 24.0798 77.824 24.6248 76.3645 24.6248C75.5389 24.6248 74.7797 24.4755 74.0868 24.1768C73.394 23.8633 72.7895 23.4302 72.2736 22.8777C71.7576 22.3252 71.3522 21.6756 71.0573 20.929C70.7772 20.1823 70.6372 19.3685 70.6372 18.4874C70.6372 17.6661 70.7772 16.8896 71.0573 16.1579C71.3374 15.4113 71.7281 14.7617 72.2293 14.2092C72.7306 13.6567 73.3276 13.2236 74.0205 12.91C74.7134 12.5815 75.48 12.4173 76.3203 12.4173C77.7355 12.4173 78.9075 12.9175 79.8363 13.918V12.7757ZM89.9457 16.1579V24.2664H85.9432V16.1579H84.6164V12.7757H85.9432V9.32617H89.9457V12.7757H92.2234V16.1579H89.9457Z" fill="#2D3436"/>
</svg>
