<svg xmlns="http://www.w3.org/2000/svg" width="458" height="652" viewBox="0 0 458 652">
  <g id="Group_26" data-name="Group 26" transform="translate(-731 -213)">
    <g id="Group_25" data-name="Group 25" transform="translate(748 209.208)">
      <path id="Path_5" data-name="Path 5" d="M70.107,153.008h0c0-54.608,44.1-98.877,98.5-98.877h24.179c54.4,0,98.5,44.269,98.5,98.877H342.33C342.33,70.6,275.777,3.792,193.682,3.792H169.5c-82.1,0-148.648,66.806-148.648,149.216Z" transform="translate(31.08 0)" fill="#f1f7fc"/>
      <path id="Path_6" data-name="Path 6" d="M96.476,74.274H41.22A41.3,41.3,0,0,0,0,115.651v65.562A41.3,41.3,0,0,0,41.22,222.59H96.476a4.72,4.72,0,0,0,4.711-4.729V79a4.72,4.72,0,0,0-4.711-4.729" transform="translate(0 105.7)" fill="#f1f7fc"/>
      <path id="Path_7" data-name="Path 7" d="M304.545,115.638v65.579A41.306,41.306,0,0,1,263.318,222.6h-9.366c-4.35,14.2-10.227,27.679-33.406,42.312s-57.635,2-89.432,7.434c-28.54,4.88-26.124,41.08-25.33,48.444a1.174,1.174,0,0,1-1.165,1.3H81.337a1.187,1.187,0,0,1-1.173-1.247c2.149-46.1,14.139-54.056,25.128-61.917,18.32-13.113,77.5-10.634,97.619-11.976S225.851,222.6,225.851,222.6H208.068a4.722,4.722,0,0,1-4.711-4.732V79a4.72,4.72,0,0,1,4.711-4.729h55.267a41.288,41.288,0,0,1,41.21,41.367" transform="translate(119.455 105.696)" fill="#f1f7fc"/>
    </g>
    <g id="Group_24" data-name="Group 24" transform="translate(731 733)">
      <path id="Path_1" data-name="Path 1" d="M286.26,0c-37.608,0-68.088,29.545-68.088,66s30.48,66,68.088,66,68.088-29.545,68.088-66S323.868,0,286.26,0m0,98.974c-18.786,0-34.017-14.764-34.017-32.974s15.231-32.974,34.017-32.974S320.277,47.79,320.277,66,305.046,98.974,286.26,98.974" transform="translate(-218.172)" fill="#f1f7fc"/>
      <path id="Path_2" data-name="Path 2" d="M646.52,0c-37.608,0-68.088,29.545-68.088,66s30.48,66,68.088,66,68.088-29.545,68.088-66S684.128,0,646.52,0m0,98.974C627.734,98.974,612.5,84.21,612.5,66s15.231-32.974,34.017-32.974S680.538,47.79,680.538,66,665.307,98.974,646.52,98.974" transform="translate(-256.609)" fill="#f1f7fc"/>
      <path id="Path_3" data-name="Path 3" d="M377.962,39.818v88.351a2.773,2.773,0,0,0,2.816,2.729h31.329a2.773,2.773,0,0,0,2.816-2.729V39.19a2.773,2.773,0,0,1,2.816-2.729h16.67c17.891,0,32.394,14.059,32.394,31.4s-14.5,31.4-32.394,31.4H425.2a2.774,2.774,0,0,0-2.816,2.729v26.177A2.773,2.773,0,0,0,425.2,130.9h10.007c36.675,0,66.406-28.819,66.406-64.369h0c0-35.55-29.731-64.369-66.406-64.369H417.587a8.349,8.349,0,0,0-5.736,2.263L380.441,34.116a7.848,7.848,0,0,0-2.479,5.7" transform="translate(-235.22 -0.289)" fill="#f1f7fc"/>
      <path id="Path_4" data-name="Path 4" d="M561.157,3.937,527.616,37.02a2.344,2.344,0,0,0-.7,1.667v90.951a1.486,1.486,0,0,0,1.508,1.462h32.827a1.486,1.486,0,0,0,1.508-1.462V4.571a.937.937,0,0,0-1.6-.634" transform="translate(-251.112 -0.491)" fill="#f1f7fc"/>
    </g>
  </g>
</svg>
