<svg xmlns="http://www.w3.org/2000/svg" width="12" height="12" viewBox="0 0 12 12">
  <path id="hashtag" d="M11.8,6.271,11.995,5.2a.321.321,0,0,0-.316-.378h-2l.392-2.194A.321.321,0,0,0,9.75,2.25H8.662a.321.321,0,0,0-.316.265L7.933,4.821H5.291l.392-2.194a.321.321,0,0,0-.316-.378H4.278a.321.321,0,0,0-.316.265L3.55,4.821H1.431a.321.321,0,0,0-.316.265L.923,6.158a.321.321,0,0,0,.316.378h2L2.631,9.964H.513a.321.321,0,0,0-.316.265L.005,11.3a.321.321,0,0,0,.316.378h2l-.392,2.194a.321.321,0,0,0,.316.378H3.338a.321.321,0,0,0,.316-.265l.412-2.306H6.709l-.392,2.194a.321.321,0,0,0,.316.378H7.722a.321.321,0,0,0,.316-.265l.412-2.306h2.119a.321.321,0,0,0,.316-.265l.191-1.071a.321.321,0,0,0-.316-.378h-2l.612-3.429h2.119a.321.321,0,0,0,.316-.265ZM7.015,9.964H4.373l.612-3.429H7.627Z" transform="translate(0 -2.25)" fill="#0073bc"/>
</svg>
