<svg xmlns="http://www.w3.org/2000/svg" width="18" height="18" viewBox="0 0 18 18">
  <path id="moment" d="M2.9,8.3a.9.9,0,0,0,.9-.9V4.7a.9.9,0,0,1,.9-.9H7.4A.9.9,0,1,0,7.4,2H4.7A2.7,2.7,0,0,0,2,4.7V7.4a.9.9,0,0,0,.9.9Zm4.5,9.9H4.7a.9.9,0,0,1-.9-.9V14.6a.9.9,0,1,0-1.8,0v2.7A2.7,2.7,0,0,0,4.7,20H7.4a.9.9,0,1,0,0-1.8ZM11,7.4A3.6,3.6,0,1,0,14.6,11,3.6,3.6,0,0,0,11,7.4Zm0,5.4A1.8,1.8,0,1,1,12.8,11,1.8,1.8,0,0,1,11,12.8ZM17.3,2H14.6a.9.9,0,1,0,0,1.8h2.7a.9.9,0,0,1,.9.9V7.4a.9.9,0,1,0,1.8,0V4.7A2.7,2.7,0,0,0,17.3,2Zm1.8,11.7a.9.9,0,0,0-.9.9v2.7a.9.9,0,0,1-.9.9H14.6a.9.9,0,1,0,0,1.8h2.7A2.7,2.7,0,0,0,20,17.3V14.6A.9.9,0,0,0,19.1,13.7Z" transform="translate(-2 -2)" fill="#ff9300"/>
</svg>
