<svg xmlns="http://www.w3.org/2000/svg" width="12.454" height="14" viewBox="0 0 12.454 14">
  <g id="seller" transform="translate(0 0)">
    <g id="Group_50" data-name="Group 50">
      <path id="Path_2" data-name="Path 2" d="M4.1,546.665c.041.177.082.34.118.5a12.281,12.281,0,0,0,.624,2.107,8.409,8.409,0,0,0,1.1,1.891,2.043,2.043,0,0,0,.2.219c.068.066.1.069.165,0a3.684,3.684,0,0,0,.3-.339A7.964,7.964,0,0,0,7.922,548.4c.151-.539.271-1.086.4-1.629.027-.11.03-.115.139-.069.387.163.775.323,1.159.494s.738.332,1.1.516a3.11,3.11,0,0,1,1.312,1.4,3.712,3.712,0,0,1,.422,1.852.489.489,0,0,1-.279.45,2.218,2.218,0,0,1-.713.209c-.7.112-1.4.229-2.107.314-.666.08-1.336.135-2.006.178a18.673,18.673,0,0,1-2.248,0c-.546-.031-1.093-.07-1.636-.132-.917-.105-1.832-.222-2.735-.418a2.253,2.253,0,0,1-.391-.126A.513.513,0,0,1,0,550.938,3.8,3.8,0,0,1,1,548.286a2.815,2.815,0,0,1,.969-.691c.529-.245,1.067-.47,1.6-.7l.427-.188c.03-.013.063-.021.109-.037" transform="translate(-0.001 -538.156)" fill="#0073bc"/>
      <path id="Path_3" data-name="Path 3" d="M218.3,61.226a2.9,2.9,0,0,1,1.4.315,2.145,2.145,0,0,1,1.164,1.734c.039.35.033.7.047,1.057q.007.183.016.365a.109.109,0,0,0,.071.108.264.264,0,0,1,.153.227,2.362,2.362,0,0,1-.534,1.844,1.476,1.476,0,0,0-.252.432,2.715,2.715,0,0,1-.784,1.179,1.914,1.914,0,0,1-2.653-.049,2.723,2.723,0,0,1-.729-1.124,1.317,1.317,0,0,0-.222-.4,2.727,2.727,0,0,1-.489-.879,1.474,1.474,0,0,1-.075-.371c-.011-.207,0-.415,0-.622a.254.254,0,0,1,.164-.243c.06-.026.059-.075.06-.123.011-.327.019-.653.031-.98.005-.148.009-.3.027-.442a2.214,2.214,0,0,1,1.654-1.907,3.731,3.731,0,0,1,.954-.121" transform="translate(-212.047 -60.273)" fill="#0073bc"/>
      <path id="Path_4" data-name="Path 4" d="M120.227,4.59c0,.29,0,.581,0,.871a.618.618,0,0,1-.558.653c-.075.013-.094.043-.1.115-.022.237-.05.474-.082.711a.146.146,0,0,0,.053.149.7.7,0,0,1,.267.667.662.662,0,0,1-1.309-.015.659.659,0,0,1,.439-.73.154.154,0,0,0,.11-.128,4.024,4.024,0,0,0,.051-.455c.013-.98.016-1.961.028-2.941A2.825,2.825,0,0,0,117.561.9a3.543,3.543,0,0,0-2.183-.446,3.463,3.463,0,0,0-2.289,1.1,2.591,2.591,0,0,0-.727,1.8q-.006,1.253-.009,2.506a.277.277,0,0,1-.216.255.926.926,0,0,1-.6-.106.493.493,0,0,1-.267-.413c-.011-.223-.023-.446-.023-.669,0-.4.006-.8.013-1.206a.63.63,0,0,1,.555-.651.146.146,0,0,0,.141-.141A3.218,3.218,0,0,1,113.287.793a4.012,4.012,0,0,1,2.69-.785,4.074,4.074,0,0,1,1.956.6A3.328,3.328,0,0,1,119.527,2.9c.021.117.062.16.174.176a.65.65,0,0,1,.335.17.525.525,0,0,1,.189.41q0,.467,0,.933Z" transform="translate(-109.515 0)" fill="#0073bc"/>
      <path id="Path_5" data-name="Path 5" d="M359.82,688.267c-.125-.223-.247-.434-.363-.648-.085-.157-.164-.317-.243-.478a.158.158,0,0,1-.016-.1c.058-.258.122-.514.18-.772a.119.119,0,0,1,.128-.109c.2,0,.409-.007.614-.006a.163.163,0,0,1,.171.132c.062.257.122.514.181.771a.092.092,0,0,1-.011.059q-.3.556-.608,1.111a.259.259,0,0,1-.032.034" transform="translate(-353.604 -675.479)" fill="#0073bc"/>
      <path id="Path_6" data-name="Path 6" d="M361.238,606.164c.176,0,.352,0,.528,0,.1,0,.129.034.112.133-.046.26-.1.518-.154.776a.109.109,0,0,1-.079.067q-.372.007-.744,0a.109.109,0,0,1-.078-.068c-.057-.26-.111-.521-.157-.783-.019-.109.01-.134.121-.135.15,0,.3,0,.451,0,0,0,0,.008,0,.012" transform="translate(-355.047 -596.716)" fill="#0073bc"/>
    </g>
  </g>
</svg>
