<svg xmlns="http://www.w3.org/2000/svg" width="16" height="14" viewBox="0 0 16 14">
  <path id="sort" d="M7.5,4.25h2a.5.5,0,0,0,.5-.5v-1a.5.5,0,0,0-.5-.5h-2a.5.5,0,0,0-.5.5v1A.5.5,0,0,0,7.5,4.25Zm0,4h4a.5.5,0,0,0,.5-.5v-1a.5.5,0,0,0-.5-.5h-4a.5.5,0,0,0-.5.5v1A.5.5,0,0,0,7.5,8.25Zm8,6h-8a.5.5,0,0,0-.5.5v1a.5.5,0,0,0,.5.5h8a.5.5,0,0,0,.5-.5v-1A.5.5,0,0,0,15.5,14.25Zm-8-2h6a.5.5,0,0,0,.5-.5v-1a.5.5,0,0,0-.5-.5h-6a.5.5,0,0,0-.5.5v1A.5.5,0,0,0,7.5,12.25Zm-2,0H4V2.75a.5.5,0,0,0-.5-.5h-1a.5.5,0,0,0-.5.5v9.5H.5a.5.5,0,0,0-.353.853l2.5,3a.5.5,0,0,0,.707,0l2.5-3A.5.5,0,0,0,5.5,12.25Z" transform="translate(0 -2.25)" fill="#272727"/>
</svg>
