<svg xmlns="http://www.w3.org/2000/svg" width="21" height="14" viewBox="0 0 21 14">
  <path id="ticket" d="M4.667,8H16.333v7H4.667ZM19.25,11.5A1.75,1.75,0,0,0,21,13.25v3.5a1.75,1.75,0,0,1-1.75,1.75H1.75A1.75,1.75,0,0,1,0,16.75v-3.5A1.75,1.75,0,0,0,1.75,11.5,1.75,1.75,0,0,0,0,9.75V6.25A1.75,1.75,0,0,1,1.75,4.5h17.5A1.75,1.75,0,0,1,21,6.25v3.5A1.75,1.75,0,0,0,19.25,11.5ZM17.5,7.708a.875.875,0,0,0-.875-.875H4.375a.875.875,0,0,0-.875.875v7.583a.875.875,0,0,0,.875.875h12.25a.875.875,0,0,0,.875-.875Z" transform="translate(0 -4.5)" fill="#272727" opacity="0.7"/>
</svg>
